<svg width="23" height="23" viewBox="0 0 23 23" fill="none" xmlns="http://www.w3.org/2000/svg">
<path d="M12.6822 0C13.9759 0.00342374 14.6325 0.0102712 15.1994 0.0262487L15.4225 0.0342374C15.6801 0.0433674 15.9342 0.0547798 16.2413 0.0684747C17.4648 0.125537 18.2997 0.317267 19.0322 0.599155C19.7911 0.889031 20.4305 1.28162 21.0699 1.91501C21.6546 2.48552 22.1071 3.17562 22.3958 3.9373C22.6798 4.66428 22.873 5.49282 22.9305 6.70825C22.9443 7.01182 22.9558 7.26404 22.965 7.52082L22.9719 7.74222C22.9891 8.30371 22.996 8.95536 22.9983 10.2393L22.9995 11.0906V12.5857C23.0023 13.4181 22.9935 14.2505 22.973 15.0827L22.9661 15.3041C22.9569 15.5609 22.9454 15.8131 22.9316 16.1167C22.8741 17.3321 22.6787 18.1595 22.3958 18.8876C22.1079 19.6497 21.6553 20.34 21.0699 20.9099C20.4949 21.49 19.7996 21.939 19.0322 22.2258C18.2997 22.5077 17.4648 22.6994 16.2413 22.7565C15.9684 22.7692 15.6955 22.7806 15.4225 22.7907L15.1994 22.7975C14.6325 22.8135 13.9759 22.8215 12.6822 22.8238L11.8244 22.8249H10.3191C9.47993 22.8278 8.64077 22.8191 7.80186 22.7987L7.57878 22.7918C7.30579 22.7816 7.03287 22.7698 6.76002 22.7565C5.53648 22.6994 4.70162 22.5077 3.96796 22.2258C3.20057 21.9398 2.50548 21.4906 1.93141 20.9099C1.34615 20.3396 0.893276 19.6495 0.604383 18.8876C0.320347 18.1607 0.127157 17.3321 0.0696599 16.1167C0.0568482 15.8459 0.0453487 15.575 0.0351617 15.3041L0.0294122 15.0827C0.00822109 14.2505 -0.00136278 13.4181 0.000663517 12.5857V10.2393C-0.00254593 9.40684 0.00588787 8.57441 0.0259623 7.74222L0.0340119 7.52082C0.0432114 7.26404 0.0547108 7.01182 0.0685101 6.70825C0.126007 5.49282 0.319197 4.66542 0.603233 3.9373C0.891999 3.17484 1.34577 2.48452 1.93256 1.91501C2.50649 1.33466 3.20111 0.885593 3.96796 0.599155C4.70162 0.317267 5.53533 0.125537 6.76002 0.0684747C7.0659 0.0547798 7.32119 0.0433674 7.57878 0.0342374L7.80186 0.0273898C8.64039 0.00711306 9.47916 -0.00163734 10.3179 0.00114116L12.6822 0ZM11.5001 5.70623C9.97516 5.70623 8.5127 6.30743 7.43442 7.37755C6.35614 8.44768 5.75037 9.89908 5.75037 11.4125C5.75037 12.9259 6.35614 14.3773 7.43442 15.4474C8.5127 16.5175 9.97516 17.1187 11.5001 17.1187C13.025 17.1187 14.4875 16.5175 15.5657 15.4474C16.644 14.3773 17.2498 12.9259 17.2498 11.4125C17.2498 9.89908 16.644 8.44768 15.5657 7.37755C14.4875 6.30743 13.025 5.70623 11.5001 5.70623ZM11.5001 7.98873C11.9531 7.98865 12.4017 8.07714 12.8203 8.24913C13.2389 8.42112 13.6192 8.67325 13.9396 8.99112C14.26 9.30899 14.5142 9.68637 14.6876 10.1017C14.8611 10.5171 14.9504 10.9623 14.9505 11.4119C14.9505 11.8615 14.8614 12.3067 14.6881 12.7222C14.5148 13.1376 14.2607 13.515 13.9404 13.833C13.6202 14.151 13.2399 14.4032 12.8214 14.5754C12.4028 14.7475 11.9543 14.8361 11.5012 14.8362C10.5863 14.8362 9.7088 14.4755 9.06183 13.8334C8.41486 13.1913 8.0514 12.3205 8.0514 11.4125C8.0514 10.5044 8.41486 9.63359 9.06183 8.99152C9.7088 8.34944 10.5863 7.98873 11.5012 7.98873M17.5384 3.99436C17.1572 3.99436 16.7916 4.14466 16.522 4.41219C16.2524 4.67973 16.101 5.04258 16.101 5.42092C16.101 5.79927 16.2524 6.16212 16.522 6.42965C16.7916 6.69718 17.1572 6.84748 17.5384 6.84748C17.9196 6.84748 18.2853 6.69718 18.5548 6.42965C18.8244 6.16212 18.9758 5.79927 18.9758 5.42092C18.9758 5.04258 18.8244 4.67973 18.5548 4.41219C18.2853 4.14466 17.9196 3.99436 17.5384 3.99436Z" fill="#ECF7F5"/>
</svg>
