<svg width="132" height="132" viewBox="0 0 132 132" fill="none" xmlns="http://www.w3.org/2000/svg">
<path d="M66 0.0161133C52.9465 0.0161133 40.186 3.85757 29.3324 11.0547C18.4787 18.2519 10.0194 28.4814 5.02398 40.4498C0.0285967 52.4182 -1.27842 65.5879 1.2682 78.2935C3.81483 90.9991 10.1007 102.67 19.331 111.83C28.5612 120.99 40.3213 127.229 53.1241 129.756C65.9268 132.283 79.1972 130.986 91.2571 126.029C103.317 121.071 113.625 112.676 120.877 101.905C128.129 91.1334 132 78.4698 132 65.5153C132 48.1438 125.046 31.4838 112.669 19.2004C100.292 6.9169 83.5043 0.0161133 66 0.0161133ZM101.107 69.7025L44.5359 97.7736C43.817 98.1301 43.0182 98.2983 42.2153 98.2622C41.4125 98.2262 40.6322 97.987 39.9487 97.5674C39.2652 97.1479 38.7012 96.5619 38.3101 95.8651C37.919 95.1684 37.7139 94.3839 37.7143 93.5863V37.4442C37.7147 36.647 37.9204 35.8632 38.3118 35.167C38.7032 34.4709 39.2674 33.8856 39.9507 33.4666C40.6341 33.0476 41.414 32.8088 42.2165 32.7729C43.0189 32.7371 43.8173 32.9053 44.5359 33.2616L101.107 61.3327C101.889 61.7217 102.547 62.3189 103.006 63.0575C103.466 63.7962 103.709 64.6472 103.709 65.5153C103.709 66.3834 103.466 67.2344 103.006 67.973C102.547 68.7117 101.889 69.3089 101.107 69.6979" fill="white"/>
</svg>
