<svg width="23" height="23" viewBox="0 0 23 23" fill="none" xmlns="http://www.w3.org/2000/svg">
<path d="M11.5 0C5.152 0 0 5.11291 0 11.4127C0 17.7126 5.152 22.8255 11.5 22.8255C17.848 22.8255 23 17.7126 23 11.4127C23 5.11291 17.848 0 11.5 0ZM16.836 7.76066C16.6635 9.56387 15.916 13.9464 15.5365 15.9664C15.3755 16.8224 15.0535 17.1077 14.7545 17.1419C14.0875 17.199 13.5815 16.7082 12.9375 16.286C11.9255 15.624 11.3505 15.2132 10.373 14.5741C9.2345 13.8322 9.9705 13.4214 10.626 12.7594C10.7985 12.5882 13.7425 9.92908 13.8 9.68941C13.808 9.65311 13.8069 9.61543 13.7969 9.57963C13.7869 9.54383 13.7682 9.511 13.7425 9.48398C13.6735 9.42692 13.5815 9.44975 13.501 9.46116C13.3975 9.48398 11.7875 10.5454 8.648 12.6453C8.188 12.9535 7.774 13.1132 7.406 13.1018C6.992 13.0904 6.21 12.8736 5.6235 12.6795C4.899 12.4513 4.3355 12.3258 4.3815 11.9263C4.4045 11.7209 4.692 11.5155 5.2325 11.2986C8.5905 9.84919 10.8215 8.89052 11.937 8.43401C15.134 7.11014 15.7895 6.88188 16.2265 6.88188C16.3185 6.88188 16.537 6.90471 16.675 7.01883C16.79 7.11013 16.8245 7.23567 16.836 7.32698C16.8245 7.39545 16.8475 7.60088 16.836 7.76066Z" fill="#ECF7F5"/>
</svg>
