<svg width="23" height="23" viewBox="0 0 23 23" fill="none" xmlns="http://www.w3.org/2000/svg">
<path d="M11.5 0C17.8515 0 23 5.10948 23 11.4127C23 17.716 17.8515 22.8255 11.5 22.8255C9.4677 22.8287 7.47117 22.295 5.71551 21.279L0.00461617 22.8255L1.55942 17.1556C0.534873 15.4127 -0.00337913 13.4305 1.59623e-05 11.4127C1.59623e-05 5.10948 5.14856 0 11.5 0ZM7.58081 6.04875L7.35081 6.05788C7.20191 6.06687 7.05639 6.1057 6.92301 6.172C6.79826 6.24211 6.68438 6.32976 6.58491 6.43221C6.44691 6.56118 6.36871 6.67302 6.28476 6.78144C5.8594 7.33028 5.63038 8.0041 5.63386 8.6965C5.63616 9.25572 5.78336 9.80011 6.01336 10.3091C6.48371 11.3385 7.25766 12.4285 8.27886 13.4385C8.52496 13.6816 8.76646 13.9258 9.02636 14.1529C10.2953 15.2616 11.8074 16.0612 13.4424 16.488L14.0956 16.5873C14.3083 16.5987 14.5211 16.5827 14.735 16.5724C15.0699 16.5553 15.3969 16.4653 15.6929 16.3088C15.8435 16.2318 15.9905 16.148 16.1334 16.0577C16.1334 16.0577 16.1828 16.0258 16.2771 15.955C16.4324 15.8409 16.5278 15.7598 16.6566 15.6263C16.7521 15.5282 16.8349 15.4129 16.8981 15.2816C16.9878 15.0956 17.0775 14.7407 17.1143 14.4451C17.1419 14.2191 17.1339 14.0959 17.1304 14.0194C17.1258 13.8973 17.0235 13.7706 16.9119 13.717L16.2426 13.4191C16.2426 13.4191 15.2421 12.9865 14.6303 12.7104C14.5663 12.6826 14.4977 12.6668 14.4279 12.6636C14.3492 12.6555 14.2697 12.6643 14.1947 12.6893C14.1198 12.7143 14.051 12.755 13.9932 12.8085C13.9875 12.8062 13.9104 12.8713 13.079 13.871C13.0312 13.9347 12.9655 13.9828 12.8901 14.0092C12.8148 14.0356 12.7332 14.0392 12.6558 14.0194C12.5808 13.9995 12.5074 13.9743 12.4361 13.9441C12.2935 13.8847 12.2441 13.8619 12.1463 13.8208C11.4863 13.535 10.8752 13.1488 10.3351 12.6761C10.1902 12.5506 10.0556 12.4136 9.91761 12.2812C9.46518 11.8512 9.07089 11.3648 8.74461 10.8341L8.67676 10.7257C8.62803 10.6528 8.58862 10.5742 8.55946 10.4917C8.51576 10.324 8.62961 10.1893 8.62961 10.1893C8.62961 10.1893 8.90906 9.8857 9.03901 9.72136C9.16551 9.56158 9.27246 9.40637 9.34146 9.29567C9.47716 9.07883 9.51971 8.85628 9.44841 8.68394C9.12641 7.90331 8.79291 7.12611 8.45021 6.35461C8.38236 6.20168 8.18111 6.09211 7.99826 6.07043C7.93616 6.06358 7.87406 6.05673 7.81196 6.05217C7.65752 6.04456 7.50277 6.04608 7.34851 6.05674L7.57966 6.0476L7.58081 6.04875Z" fill="#ECF7F5"/>
</svg>
